<?xml version="1.0" encoding="utf-8"?>
<!-- Generator: Adobe Illustrator 27.5.0, SVG Export Plug-In . SVG Version: 6.00 Build 0)  -->
<svg version="1.1" xmlns="http://www.w3.org/2000/svg" xmlns:xlink="http://www.w3.org/1999/xlink" x="0px" y="0px"
	 viewBox="0 0 2500 2500" style="enable-background:new 0 0 2500 2500;" xml:space="preserve">
<g id="Background">
	<rect style="fill:#FFFFFF;" width="2500" height="2500"/>
</g>
<g id="Illustration">
	<g id="Gesture_recognition_1_">
		<circle style="fill:#F2E6DC;" cx="1250" cy="1250" r="915"/>
		<g>
			
		</g>
		<g>
			<g>
				<path style="fill:#363E44;" d="M2156.189,1482.502H666.686c-1.218,0-2.205-0.987-2.205-2.205V351.317
					c0-1.218,0.987-2.205,2.205-2.205h1489.503c1.219,0,2.205,0.987,2.205,2.205v1128.981
					C2158.394,1481.515,2157.408,1482.502,2156.189,1482.502z M668.891,1478.093h1485.094V353.521H668.891V1478.093z"/>
				
					<rect x="938.947" y="172.52" transform="matrix(-1.836970e-16 1 -1 -1.836970e-16 2281.9785 -540.8979)" style="fill:#E6D0BE;" width="944.983" height="1396.04"/>
				
					<ellipse transform="matrix(0.2298 -0.9732 0.9732 0.2298 -281.3463 2456.7368)" style="fill:#FFFFFF;" cx="1411.438" cy="1406.117" rx="28.038" ry="28.038"/>
				<path style="fill:#E6D0BE;" d="M1568.229,1502.676h-44.098c0,33.079-26.816,59.896-59.896,59.896H1358.64
					c-33.079,0-59.896-26.816-59.896-59.896h-44.096l-44.098,234.348v19.599h401.776v-19.599L1568.229,1502.676z"/>
				<path style="fill:#E6D0BE;" d="M1612.327,1783.326H1210.55c-1.218,0-2.205-0.987-2.205-2.205c0-1.218,0.987-2.205,2.205-2.205
					h401.777c1.219,0,2.205,0.987,2.205,2.205C1614.532,1782.339,1613.545,1783.326,1612.327,1783.326z"/>
			</g>
			<g>
				<g>
					<g>
						<path style="fill:#F7F1EB;" d="M1151.252,865.231c-75.3,0-136.561-61.261-136.561-136.561
							c0-75.3,61.261-136.561,136.561-136.561c75.3,0,136.561,61.261,136.561,136.561
							C1287.813,803.97,1226.552,865.231,1151.252,865.231z M1151.252,596.519c-72.869,0-132.151,59.283-132.151,132.151
							c0,72.868,59.282,132.151,132.151,132.151c72.869,0,132.151-59.283,132.151-132.151
							C1283.404,655.802,1224.121,596.519,1151.252,596.519z"/>
						<path style="fill:#FFFFFF;" d="M1151.252,729.512c-42.732,0-70.471,16.36-70.471,42.584
							c13.327,25.315,39.876,42.584,70.471,42.584c30.596,0,57.144-17.27,70.472-42.584
							C1221.724,747.25,1191.228,729.512,1151.252,729.512z"/>
						
							<ellipse transform="matrix(0.2298 -0.9732 0.9732 0.2298 231.9782 1638.6528)" style="fill:#FFFFFF;" cx="1151.252" cy="672.768" rx="36.343" ry="36.343"/>
					</g>
					<g>
						<g>
							
							<g>
								<path style="fill:#8B865C;" d="M1170.297,537.256c79.866,7.626,148.633,65.087,168.405,145.227l62.219-10.26
									c-13.757-61.019-48.919-114.207-100.177-150.954c-38.644-27.704-83.202-43.736-129.446-47.146L1170.297,537.256z"/>
								<path style="fill:#D87355;" d="M1343.649,712.489c8.423,98.885-60.752,189.474-160.309,205.891
									c-52.269,8.619-103.172-4.814-143.175-33.462l-40.713,48.27c1.3,0.969,2.601,1.938,3.922,2.885
									c55.399,39.715,122.948,55.479,190.203,44.389c67.256-11.09,126.167-47.707,165.882-103.106
									c36.747-51.258,52.971-112.92,46.408-175.126L1343.649,712.489z"/>
								<path style="fill:#EFBC73;" d="M1027.318,582.42c25.755-22.041,57.639-37.552,93.458-43.458
									c6.398-1.055,12.774-1.775,19.113-2.181l0.999-63.081c-10.095,0.462-20.225,1.512-30.349,3.181
									c-48.275,7.96-92.25,29.074-127.914,60.845L1027.318,582.42z"/>
								<path style="fill:#F7F1EB;" d="M944.657,579.986c-39.715,55.399-55.479,122.947-44.389,190.203
									c9.158,55.538,35.737,105.374,75.911,143.422l40.734-48.295c-27.917-27.538-47.71-63.799-54.564-105.364
									c-9.57-58.034,8.055-114.376,43.499-155.995l-44.677-44.679C955.358,565.854,949.84,572.756,944.657,579.986z"/>
							</g>
						</g>
					</g>
				</g>
				<g>
					<g>
						<g>
							<path style="fill:#FFFFFF;" d="M1652.278,974.596c14.282-80.614,46.182-497.948,108.958-474.704
								c29.601,10.96-2.96,280.131-4.941,323.029c12.301-46.935,52.874-333.73,90.354-315.657
								c38.572,18.599-18.856,330.43-18.534,332.625c6.74-24.826,52.164-278.015,94.111-262.407
								c40.394,15.03-25.005,235.013-26.253,263.495c11.599-30.073,46.809-184.823,73.138-174.973
								c35.276,13.198-7.49,172.012-6.433,197.639c-9.021,72.582-10.46,79.667-11.319,218.866
								C1949.821,1331.502,1596.018,1292.154,1652.278,974.596z"/>
						</g>
						<path style="fill:#FFFFFF;" d="M1674.869,845.362c-50.088-111.975-78.961-154.99-88.897-150.537
							c-32.724,14.658,24.486,277.961,64.912,332.954c18.501,25.166,29.299,16.287,29.299,16.287
							c14.1,7.943,23.551,13.267,28.802,9.475C1719.769,1045.754,1726.042,1024.063,1674.869,845.362z"/>
					</g>
					<g>
						
							<ellipse transform="matrix(0.9732 -0.2298 0.2298 0.9732 -81.5366 416.2662)" style="fill:#D87355;" cx="1746.803" cy="558.276" rx="12.742" ry="12.742"/>
						<circle style="fill:#D87355;" cx="1834.058" cy="571.041" r="12.765"/>
						<circle style="fill:#D87355;" cx="1910.119" cy="630.646" r="11.944"/>
						
							<ellipse transform="matrix(0.3827 -0.9239 0.9239 0.3827 543.6595 2255.8909)" style="fill:#D87355;" cx="1959.919" cy="721.124" rx="12.955" ry="12.956"/>
						<circle style="fill:#D87355;" cx="1606.07" cy="765.713" r="13.025"/>
						<path style="fill:#D87355;" d="M1796.341,1181.213c-55.846,0-101.28-45.435-101.28-101.281
							c0-55.847,45.433-101.281,101.28-101.281c55.846,0,101.282,45.435,101.282,101.281
							C1897.623,1135.778,1852.187,1181.213,1796.341,1181.213z M1796.341,983.061c-53.415,0-96.87,43.456-96.87,96.872
							c0,53.415,43.455,96.871,96.87,96.871c53.415,0,96.872-43.456,96.872-96.871
							C1893.213,1026.517,1849.756,983.061,1796.341,983.061z"/>
						
							<ellipse transform="matrix(0.9732 -0.2298 0.2298 0.9732 -200.0634 441.6034)" style="fill:#D87355;" cx="1796.342" cy="1079.932" rx="32.087" ry="32.087"/>
						<circle style="fill:#D87355;" cx="1730.757" cy="671.42" r="10.876"/>
						
							<ellipse transform="matrix(0.3827 -0.9239 0.9239 0.3827 489.8552 2097.7114)" style="fill:#D87355;" cx="1814.65" cy="682.296" rx="10.876" ry="10.876"/>
						<circle style="fill:#D87355;" cx="1890.115" cy="714.026" r="10.876"/>
						
							<ellipse transform="matrix(0.9732 -0.2298 0.2298 0.9732 -128.9095 468.396)" style="fill:#D87355;" cx="1946.963" cy="787.77" rx="10.876" ry="10.876"/>
						<path style="fill:#D87355;" d="M1791.798,1090.085c-0.454,0-0.911-0.139-1.305-0.43
							c-0.941-0.693-94.575-70.381-132.761-162.01c-21.286-51.08-53.456-160.213-53.777-161.31
							c-0.344-1.169,0.325-2.394,1.492-2.738c1.186-0.343,2.394,0.327,2.737,1.493c0.323,1.094,32.424,110,53.618,160.858
							c37.721,90.513,130.375,159.47,131.305,160.156c0.982,0.722,1.191,2.102,0.469,3.083
							C1793.143,1089.774,1792.476,1090.085,1791.798,1090.085z"/>
						<path style="fill:#D87355;" d="M1796.341,1082.137c-0.836,0-1.619-0.476-1.992-1.258
							c-0.7-1.473-70.065-148.201-78.984-229.397c-5.053-46.013,12.458-174.896,13.205-180.36l16.05-113.155
							c0.172-1.206,1.29-2.043,2.493-1.873c1.206,0.171,2.043,1.287,1.873,2.492l-16.047,113.144
							c-0.181,1.322-18.183,133.797-13.19,179.271c7.474,68.04,57.999,182.98,73.846,217.74
							c-1.815-38.949-7.357-168.676-3.998-234.373c1.949-38.125,22.675-151.33,22.884-152.469l19.404-111.236
							c0.211-1.198,1.337-2.004,2.551-1.793c1.199,0.209,2.002,1.351,1.794,2.551l-19.408,111.255
							c-0.213,1.155-20.885,114.078-22.819,151.917c-3.951,77.253,4.455,243.557,4.541,245.227c0.054,1.051-0.644,1.993-1.662,2.25
							C1796.7,1082.115,1796.52,1082.137,1796.341,1082.137z"/>
						<path style="fill:#D87355;" d="M1803.774,1082.137c-0.424,0-0.848-0.122-1.219-0.367c-0.784-0.519-1.152-1.479-0.917-2.388
							l58.994-228.691l27.321-137.096l20.022-83.463c0.284-1.184,1.475-1.914,2.659-1.63c1.184,0.284,1.914,1.474,1.63,2.658
							l-20.005,83.38l-27.33,137.132l-57.269,222.021c17.583-15.945,75.509-75.397,112.295-195.083
							c6.871-22.353,24.697-90.708,24.875-91.396l12.925-66.511c0.23-1.196,1.385-1.974,2.584-1.743
							c1.197,0.232,1.977,1.39,1.744,2.585l-12.955,66.646c-0.209,0.824-18.061,69.27-24.957,91.714
							c-44.019,143.216-118.313,201.211-119.06,201.78C1804.717,1081.985,1804.245,1082.137,1803.774,1082.137z"/>
					</g>
				</g>
				<g>
					<rect x="1186.186" y="1061.715" style="fill:#D87355;" width="341.385" height="22.69"/>
					<rect x="1186.186" y="1110.785" style="fill:#8B865C;" width="341.385" height="22.69"/>
					<rect x="1186.186" y="1159.855" style="fill:#EFBC73;" width="341.385" height="22.69"/>
					<rect x="1186.186" y="1207.092" style="fill:#F7F1EB;" width="341.385" height="22.69"/>
					
						<ellipse transform="matrix(0.7071 -0.7071 0.7071 0.7071 -427.0152 1115.2146)" style="fill:#363E44;" cx="1132.675" cy="1073.06" rx="11.345" ry="11.345"/>
					<circle style="fill:#363E44;" cx="1132.675" cy="1119.37" r="11.345"/>
					
						<ellipse transform="matrix(0.7071 -0.7071 0.7071 0.7071 -496.4102 1143.9589)" style="fill:#363E44;" cx="1132.675" cy="1171.2" rx="11.345" ry="11.345"/>
					
						<ellipse transform="matrix(0.9732 -0.2298 0.2298 0.9732 -249.64 292.8311)" style="fill:#363E44;" cx="1132.675" cy="1218.437" rx="11.345" ry="11.345"/>
				</g>
			</g>
		</g>
		<g>
			<g>
				<g>
					<path style="fill:#E6D0BE;" d="M785.461,1951.747c0,0-32.436,21.011-57.848,103.919
						c122.119,67.104,183.785,99.572,185.02,97.416c0.022-0.039,0.024-0.088,0.008-0.148c4.953-10.59,7.414-20.455,8.433-29.266
						c9.308-80.459-93.271-144.728-101.812-149.933C807.997,1966.405,796.728,1959.076,785.461,1951.747z"/>
					<path style="fill:#BC8271;" d="M815.09,1892.736l-38.309,71.798c-8.143,15.261-2.232,34.234,13.137,42.171
						c13.966,7.212,31.12,2.84,39.929-10.178l34.941-51.632L815.09,1892.736z"/>
				</g>
				<path style="fill:#363E44;" d="M858.373,1177.219c0,0,110.744,246.851,115.294,474.751
					c4.346,217.645-115.294,328.309-115.294,328.309l-68.333-66.793c0,0,80.655-358.121-85.197-513.38l-22.134-201.337
					L858.373,1177.219z"/>
				<path style="fill:#F2E6DC;" d="M690.886,2029.867c0,0-18.523,59.586-17.242,126.22c0,0,119.454,0,148.224,0
					c-0.027-0.079-4.673-83.312-92.445-126.22H690.886z"/>
				<path style="fill:#BC8271;" d="M662.753,1972.046c0.928,2.435,16.315,46.135,24.725,70.035
					c4.939,14.036,20.048,21.945,34.269,17.569c0.23-0.071,0.462-0.144,0.693-0.22c13.394-4.398,21.062-18.504,18.105-32.288
					l-15.437-71.949L662.753,1972.046z"/>
				<path style="fill:#363E44;" d="M658.316,2002.29c0,0,45.499,12.829,97.65-13.561c0,0-26.57-474.668,21.247-656.065
					l-16.556-124.609l-190.182,32.07C570.476,1240.125,507.52,1575.912,658.316,2002.29z"/>
				<path style="fill:#FFFFFF;" d="M757.075,1462.138c-0.116,0-0.232-0.009-0.35-0.028c-1.203-0.191-2.022-1.321-1.831-2.524
					l8.47-53.222c0.192-1.204,1.325-2.024,2.525-1.831c1.203,0.191,2.022,1.322,1.831,2.524l-8.47,53.222
					C759.077,1461.364,758.14,1462.138,757.075,1462.138z"/>
			</g>
			<g>
				<g>
					<path style="fill:#E2A18D;" d="M865.809,1154.999c56.708-28.971,225.485-102.563,193.808-173.08
						c-26.202-58.328-187.408,20.592-245.585,45.71C831.291,1070.085,848.549,1112.542,865.809,1154.999z"/>
					<g>
						<g>
							<path style="fill:#BC8271;" d="M975.589,955c13.943-41.328,41.96-140.28,45.08-149.83
								c5.832-17.853,30.82-109.562,48.567-101.496c8.368,3.803-5.436,45.787-8.462,55.169c5.253-9.966,22.993-55.39,33.444-49.634
								c10.755,5.924-12.317,59.147-12.298,59.654c2.848-5.261,20.351-45.88,32.207-40.474
								c11.417,5.206-12.659,45.011-14.011,51.342c4.464-6.216,17.371-32.766,24.811-29.36c9.968,4.563-8.146,38.232-8.718,44.026
								c-5.169,15.866-9.182,41.914-15.882,72.777c-15.736,72.486-25.795,104.148-39.736,137.787
								c-5.408,13.048-21.358,34.907-52.752,36.085C996.942,1012.154,986.486,983.89,975.589,955z"/>
							<path style="fill:#363E44;" d="M974.05,962.205c-0.23,0-0.465-0.037-0.696-0.113c-1.156-0.384-1.781-1.633-1.396-2.788
								c0.646-1.944,2.326-7.321,4.225-13.399c2.109-6.75,4.487-14.362,6.029-19.122c0.375-1.158,1.614-1.794,2.776-1.419
								c1.158,0.375,1.794,1.618,1.418,2.776c-1.537,4.75-3.91,12.345-6.015,19.08c-1.91,6.113-3.599,11.52-4.25,13.476
								C975.835,961.62,974.974,962.205,974.05,962.205z"/>
						</g>
						<path style="fill:#BC8271;" d="M1036.791,771.143c-10.937-27.386-16.6-31.634-19.689-31.087
							c-10.174,1.8-5.37,57.888,4.678,72.057c4.598,6.484,11.113,10.538,11.113,10.538c3.892,2.422,6.501,4.045,8.183,3.434
							C1044.531,824.829,1045.748,813.54,1036.791,771.143z"/>
						<path style="fill:#363E44;" d="M1057.653,809.187c-0.155,0-0.313-0.017-0.47-0.051c-1.191-0.258-1.945-1.433-1.686-2.623
							c3.678-16.906-16.941-27.999-17.15-28.109c-1.076-0.568-1.49-1.901-0.924-2.977c0.566-1.078,1.897-1.493,2.976-0.926
							c0.973,0.511,23.801,12.751,19.406,32.95C1059.581,808.483,1058.667,809.187,1057.653,809.187z"/>
					</g>
				</g>
				<path style="fill:#8B865C;" d="M513.48,1194.168l-48.443-150.696c61.729-86.649,234.2-77.645,327.512-63.74
					c138.793,20.682,208.776-153.703,208.776-153.703l112.031,59.277c-55.124,238.343-232.284,269.693-232.284,269.693
					l23.708,124.092c-18.732,14.537-54.356,38.233-92.432,54.285c0,0-63.131,23.711-276.231,27.869l-14.844-63.339L513.48,1194.168z
					"/>
				<path style="fill:#E2A18D;" d="M361.154,1237.044c16.751,6.482,24.905-0.939,42.307,3.352
					c16.779,4.138,33.795,7.455,50.931,9.851c18.162-55.844,62.133-89.447,62.133-89.447l-67.6-94.581
					c0,0-74.589,50.516-96.641,156.898C352.192,1223.564,361.242,1236.598,361.154,1237.044z"/>
				<path style="fill:#BC8271;" d="M353.111,1217.489c-15.995,59.939,149.728,132.072,192.818,151.195
					c4.932,4.476,12.996,10.416,23.873,12.197c12.4,2.03,16.579-3.29,29.997-3.185c22.648,0.176,33.076,16.117,38.556,10.255
					c3.761-4.023-1.914-13.574-9.355-20.94c-7.641-7.562-15.764-9.236-15.282-10.93c0.528-1.858,8.561,0.91,18.866,3.436
					c4.787,1.173,15.949,12.491,21.898,7.752c4.742-3.778-3.918-18.448-17.078-25.348c-9.311-4.881-19.258-2.605-19.307-4.524
					c-0.036-1.44,5.925-2.65,11.373-2.163c8.99,0.803,20.534,12.26,25.924,7.791c5.281-4.378-2.507-17.057-14.21-24.17
					c-9.867-5.997-20.839-2.928-20.912-5.313c-0.052-1.677,4.574-4.072,15.316-5.985c8.966-1.596,27.431,1.081,27.162-8.551
					c-0.226-8.101-19.551-11.37-37.923-11.093c-12.172,0.184-24.469,1.796-31.601,2.436c1.897-3.296,5.033-8.243,9.716-13.584
					c8.352-9.527,12.592-11.855,10.736-17.278c-1.912-5.587-11.708-3.046-21.707,2.62c-11.928,6.759-17.757,16.332-22.086,21.044
					c-20.773-13.659-113.499-78.133-134.273-91.792C405.316,1176.342,361.723,1185.217,353.111,1217.489z"/>
				<path style="fill:#8B865C;" d="M546.571,1260.181c-12.277,33.482-24.553,66.964-36.83,100.447
					c-87.642-20.395-153.255-65.713-160.095-120.412c-3.573-28.575,9.707-53.192,29.762-89.286
					c35.099-63.171,78.653-104.921,108.796-129.54c37.205,23.405,74.408,46.809,111.613,70.214
					c-25.367,25.164-50.909,51.215-76.559,78.176c-12.665,13.312-25.106,26.584-37.327,39.806
					C506.144,1226.45,526.358,1243.316,546.571,1260.181z"/>
				<path style="fill:#363E44;" d="M483.078,1207.733c-0.531,0-1.064-0.191-1.487-0.578l-15.873-14.519
					c-0.899-0.822-0.961-2.216-0.139-3.115c0.82-0.898,2.213-0.961,3.115-0.138l15.873,14.519c0.899,0.821,0.961,2.216,0.139,3.115
					C484.271,1207.491,483.676,1207.733,483.078,1207.733z"/>
				<path style="fill:#363E44;" d="M881.07,1154.499c-1.052,0-1.983-0.755-2.17-1.827l-2.656-15.253
					c-0.209-1.2,0.594-2.342,1.795-2.55c1.21-0.212,2.342,0.595,2.55,1.794l2.656,15.253c0.209,1.2-0.594,2.341-1.795,2.55
					C881.321,1154.489,881.195,1154.499,881.07,1154.499z"/>
			</g>
			<g>
				<path style="fill:#BC8271;" d="M700.986,872.577c-16.779,0.209-30.211,13.981-30.001,30.76l0.794,63.673
					c0.209,16.778,13.981,30.211,30.76,30.001c16.778-0.209,30.211-13.981,30.001-30.759l-0.795-63.673
					C731.536,885.8,717.764,872.368,700.986,872.577z"/>
				<g>
					<path style="fill:#BC8271;" d="M651.326,808.945c1.963-1.819,21.021-18.961,43.847-14.387
						c16.985,3.404,28.188,15.844,43.822,39.552c18.411,27.918,25.517,47.179,21.866,58.238
						c-5.768,17.473-56.047,26.509-87.302,13.693c-22.56-9.251-37.851-31.652-40.076-56.106
						C631.265,825.549,650.074,810.107,651.326,808.945z"/>
					<g>
						<path style="fill:#FFFFFF;" d="M688.518,854.484c0,0,8.335,5.926,19.103,7.264c2.278,0.283,0.203-18.558-2.11-17.786
							C695.415,847.329,688.518,854.484,688.518,854.484z"/>
						<path style="fill:#363E44;" d="M739.12,849.772c0,0-12.235-8.699-26.209-7.398c-2.593,0.241-5.063,0.811-7.367,1.577
							c-2.375,5.714-1.782,12.46,2.072,17.79c2.28,0.284,4.668,0.367,7.111,0.139C728.701,860.581,739.12,849.772,739.12,849.772z"
							/>
					</g>
					<path style="fill:#363E44;" d="M737.195,877.325c-0.396,0-0.794-0.027-1.194-0.085c-3.927-0.563-6.229-3.782-6.97-5.595
						c-0.461-1.127,0.08-2.414,1.207-2.875c1.132-0.46,2.416,0.081,2.875,1.207c0.041,0.095,1.109,2.553,3.514,2.897
						c1.941,0.283,3.926-0.888,4.811-2.838c0.502-1.11,1.809-1.6,2.918-1.099c1.109,0.503,1.601,1.809,1.098,2.918
						C743.941,875.199,740.656,877.325,737.195,877.325z"/>
					<path style="fill:#BC8271;" d="M741.923,841.218c0.908,1.352,2.428,3.198,4.823,4.487c2.887,1.557,4.909,1.152,6.016,2.681
						c0.742,1.025,1.133,2.999-0.875,7.212L741.923,841.218z"/>
					<path style="fill:#363E44;" d="M699.206,744.912c-4.241,2.444-12.946,7.461-17.188,9.905c1.996,1.62,3.549,3.698,4.44,6.1
						c1.82,4.906,0.238,9.343-0.273,10.627c-0.305-1.465-1.412-5.851-5.452-9.46c-1.88-1.68-3.847-2.697-5.551-3.327
						c-5.124,2.953-10.248,5.906-15.372,8.859c3.62,2.537,8.38,6.365,7.32,9.999c-2.085,7.146-16.664,8.135-26.502,15.014
						c-7.924,5.541-19.296,18.099-14.816,42.918c-5.151,5.998-12.545,16.815-12.445,30.436c0.175,23.818,23.204,47.67,57.591,54.181
						c3.699,0.092,19.997-20.553,8.779-26.256c-4.326-9.225-8.651-18.45-12.977-27.676c6.819,6.151,13.639,12.302,20.458,18.454
						c2.476-1.685,4.951-3.37,7.427-5.055c-5.862-4.643-15.627-13.789-21.55-28.423c-2.374-5.867-3.61-11.327-4.253-15.902
						c4.968-0.555,12.383-2.002,20.201-6.213c18.642-10.042,35.859-31.608,31.468-54.84
						C717.733,759.567,704.723,747.445,699.206,744.912z"/>
					<path style="fill:#363E44;" d="M751.886,857.804c-0.319,0-0.642-0.069-0.947-0.215c-1.099-0.524-1.565-1.84-1.042-2.939
						c1.37-2.875,1.437-4.475,1.079-4.973c-0.148-0.205-0.574-0.34-1.508-0.598c-1.014-0.281-2.276-0.629-3.767-1.433
						c-2.199-1.184-4.087-2.933-5.607-5.199c-0.679-1.011-0.409-2.381,0.602-3.06c1.01-0.679,2.38-0.408,3.059,0.602
						c1.117,1.664,2.475,2.934,4.038,3.774c1.054,0.569,1.967,0.821,2.85,1.065c1.328,0.367,2.833,0.783,3.906,2.264
						c1.556,2.154,1.336,5.245-0.67,9.454C753.5,857.341,752.71,857.804,751.886,857.804z"/>
					<g>
						<path style="fill:#BC8271;" d="M685.231,862.918c10.328,5.339,15.043,16.744,10.53,25.474
							c-4.513,8.73-16.544,11.479-26.872,6.14c-10.328-5.339-15.043-16.744-10.53-25.474
							C662.872,860.328,674.903,857.579,685.231,862.918z"/>
						<path style="fill:#363E44;" d="M674.909,889.79c-0.221,0-0.444-0.033-0.664-0.103c-0.801-0.253-1.591-0.579-2.349-0.971
							c-6.321-3.267-9.146-10.407-6.298-15.917c0.72-1.392,1.736-2.573,3.022-3.51c0.988-0.718,2.364-0.501,3.081,0.483
							c0.717,0.984,0.501,2.363-0.482,3.081c-0.728,0.53-1.302,1.194-1.704,1.972c-1.731,3.349,0.245,7.823,4.405,9.973
							c0.535,0.276,1.091,0.506,1.651,0.683c1.162,0.366,1.805,1.605,1.439,2.766C676.714,889.188,675.845,889.79,674.909,889.79z"
							/>
					</g>
				</g>
				
					<ellipse transform="matrix(0.1202 -0.9927 0.9927 0.1202 -359.0396 1567.5394)" style="fill:#BC8271;" cx="704.907" cy="986.345" rx="23.242" ry="58.905"/>
			</g>
		</g>
		<g>
			<g>
				<path style="fill:#D3BBA3;" d="M1698.386,1671.829c-6.248,0-12.187-0.545-17.649-1.646
					c-15.229-3.069-25.05-10.123-27.651-19.862c-0.314-1.176,0.383-2.385,1.561-2.699c1.16-0.312,2.383,0.383,2.698,1.561
					c2.147,8.034,10.763,13.957,24.262,16.677c14.041,2.83,31.47,1.795,49.089-2.912c17.617-4.707,33.242-12.505,44-21.958
					c10.342-9.091,14.857-18.521,12.71-26.556c-0.314-1.176,0.383-2.385,1.561-2.699c1.167-0.313,2.384,0.383,2.698,1.561
					c2.603,9.739-2.39,20.75-14.058,31.006c-11.257,9.893-27.513,18.028-45.774,22.906
					C1720.363,1670.272,1708.936,1671.829,1698.386,1671.829z"/>
				<path style="fill:#D3BBA3;" d="M1673.532,1691.773c-9.349,0-16.644-2.891-21.094-8.508c-0.758-0.954-0.597-2.341,0.357-3.097
					c0.952-0.757,2.34-0.596,3.096,0.358c5.165,6.513,15.494,8.463,29.085,5.491c14.138-3.091,29.894-11.114,44.368-22.588
					c28.962-22.958,44.26-53.922,33.408-67.614c-0.758-0.954-0.596-2.341,0.357-3.097c0.954-0.757,2.338-0.596,3.096,0.359
					c12.764,16.101-2.224,48.522-34.123,73.808c-14.99,11.884-31.384,20.208-46.166,23.44
					C1681.484,1691.294,1677.337,1691.773,1673.532,1691.773z"/>
				<path style="fill:#D3BBA3;" d="M1725.571,1668.843c-9.642,0.001-21.204-9.395-28.6-24.167
					c-3.034-6.066-5.023-12.437-5.751-18.423c-0.149-1.209,0.713-2.308,1.921-2.455c1.216-0.146,2.308,0.714,2.455,1.922
					c0.67,5.492,2.508,11.364,5.32,16.982c7.629,15.24,20.739,24.774,28.624,20.83c3.66-1.832,5.811-6.368,6.055-12.772
					c0.263-6.88-1.718-14.915-5.579-22.624c-2.935-5.864-6.707-11.02-10.912-14.913c-0.894-0.827-0.947-2.223-0.118-3.116
					c0.825-0.893,2.22-0.946,3.116-0.12c4.588,4.249,8.69,9.842,11.859,16.175c4.186,8.362,6.33,17.157,6.042,24.766
					c-0.308,8.085-3.324,13.962-8.49,16.547C1729.665,1668.401,1727.662,1668.843,1725.571,1668.843z"/>
				
					<ellipse transform="matrix(0.9983 -0.0588 0.0588 0.9983 -95.8842 100.0334)" style="fill:#FFFFFF;" cx="1651.505" cy="1678.974" rx="7.048" ry="7.048"/>
				
					<ellipse transform="matrix(0.997 -0.0771 0.0771 0.997 -122.3493 132.4444)" style="fill:#FFFFFF;" cx="1654.473" cy="1651.1" rx="7.048" ry="7.048"/>
				
					<ellipse transform="matrix(0.997 -0.0771 0.0771 0.997 -120.1891 135.3238)" style="fill:#FFFFFF;" cx="1692.852" cy="1624.558" rx="7.048" ry="7.048"/>
				
					<ellipse transform="matrix(0.7921 -0.6104 0.6104 0.7921 -626.2347 1385.2209)" style="fill:#FFFFFF;" cx="1720.497" cy="1611.973" rx="7.048" ry="7.048"/>
				<path style="fill:#FFFFFF;" d="M1769.719,1591.286c1.005,3.761-1.229,7.624-4.99,8.629c-3.761,1.005-7.624-1.229-8.629-4.99
					c-1.005-3.761,1.229-7.624,4.99-8.629C1764.851,1585.292,1768.715,1587.526,1769.719,1591.286z"/>
				<path style="fill:#FFFFFF;" d="M1795.618,1609.477c1.005,3.761-1.229,7.624-4.99,8.629c-3.761,1.005-7.624-1.229-8.629-4.99
					c-1.005-3.761,1.229-7.624,4.99-8.629C1790.75,1603.483,1794.613,1605.717,1795.618,1609.477z"/>
				<path style="fill:#D3BBA3;" d="M1804.523,1908.527c-1.07,0-2.009-0.779-2.177-1.868c-7.601-49.134-19.417-97.908-35.12-144.967
					c-10.802-32.374-23.631-64.479-38.13-95.42c-0.517-1.102-0.043-2.415,1.062-2.932c1.1-0.517,2.414-0.041,2.931,1.061
					c14.572,31.096,27.465,63.36,38.319,95.896c15.782,47.294,27.657,96.311,35.296,145.689c0.185,1.203-0.639,2.33-1.841,2.516
					C1804.749,1908.518,1804.635,1908.527,1804.523,1908.527z"/>
			</g>
			<g>
				<path style="fill:#D3BBA3;" d="M1818.686,1582.482c-4.687,0-9.502-0.203-14.411-0.623c-21.87-1.87-42.1-7.865-56.968-16.884
					c-15.339-9.304-23.243-20.787-22.255-32.335c0.101-1.213,1.186-2.114,2.384-2.009c1.214,0.104,2.112,1.171,2.009,2.385
					c-0.835,9.789,6.319,19.8,20.149,28.188c14.299,8.673,33.852,14.448,55.056,16.261c43.274,3.699,79.88-10.227,81.658-31.04
					c0.101-1.213,1.174-2.115,2.384-2.009c1.214,0.104,2.112,1.171,2.009,2.385
					C1888.894,1567.932,1858.341,1582.482,1818.686,1582.482z"/>
				<path style="fill:#D3BBA3;" d="M1757.472,1589.938c-23.635,0.001-41.442-7.554-46.168-21.627
					c-0.388-1.155,0.235-2.405,1.389-2.792c1.158-0.387,2.405,0.234,2.793,1.388c6.647,19.801,45.963,24.528,87.639,10.534
					c41.676-13.994,70.173-41.489,63.524-61.29c-0.388-1.155,0.235-2.405,1.389-2.792c1.154-0.386,2.405,0.234,2.793,1.388
					c7.549,22.482-21.575,51.856-66.302,66.875C1787.799,1587.239,1771.595,1589.937,1757.472,1589.938z"/>
				<path style="fill:#D3BBA3;" d="M1802.042,1582.128c-12.561,0-24.1-16.353-26.708-38.397c-0.919-7.797-0.583-15.516,0.975-22.322
					c0.271-1.188,1.451-1.928,2.642-1.657c1.186,0.272,1.927,1.454,1.656,2.641c-1.447,6.32-1.755,13.52-0.893,20.821
					c2.353,19.898,13.164,35.663,23.512,34.435c10.389-1.229,17.18-19.076,14.827-38.971c-0.902-7.629-3.01-14.809-6.093-20.764
					c-0.56-1.081-0.138-2.411,0.943-2.971c1.085-0.563,2.412-0.136,2.971,0.944c3.327,6.421,5.594,14.124,6.559,22.273
					c2.724,23.037-5.484,42.306-18.689,43.869C1803.175,1582.095,1802.606,1582.128,1802.042,1582.128z"/>
				<path style="fill:#FFFFFF;" d="M1719.813,1564.057c-0.386,4.515-4.359,7.862-8.874,7.476c-4.515-0.386-7.862-4.359-7.476-8.874
					c0.386-4.515,4.359-7.862,8.874-7.476C1716.851,1555.569,1720.198,1559.542,1719.813,1564.057z"/>
				<path style="fill:#FFFFFF;" d="M1734.078,1534.71c-0.386,4.515-4.359,7.862-8.874,7.476c-4.515-0.386-7.862-4.359-7.476-8.874
					c0.386-4.515,4.359-7.862,8.874-7.476C1731.117,1526.222,1734.464,1530.195,1734.078,1534.71z"/>
				<path style="fill:#FFFFFF;" d="M1786.59,1520.814c-0.386,4.515-4.359,7.862-8.874,7.476c-4.515-0.386-7.862-4.359-7.476-8.874
					s4.359-7.862,8.874-7.476C1783.628,1512.327,1786.976,1516.3,1786.59,1520.814z"/>
				<path style="fill:#FFFFFF;" d="M1821.833,1517.959c-0.386,4.515-4.359,7.862-8.874,7.476c-4.515-0.386-7.862-4.359-7.476-8.874
					c0.386-4.515,4.359-7.862,8.874-7.476C1818.872,1509.472,1822.219,1513.444,1821.833,1517.959z"/>
				<path style="fill:#FFFFFF;" d="M1875.729,1514.061c-0.386,4.515-4.359,7.862-8.874,7.476c-4.515-0.386-7.862-4.359-7.476-8.874
					s4.359-7.862,8.874-7.476C1872.767,1505.573,1876.115,1509.546,1875.729,1514.061z"/>
				<path style="fill:#FFFFFF;" d="M1896.898,1544.214c-0.386,4.515-4.359,7.862-8.874,7.476c-4.515-0.386-7.862-4.359-7.476-8.874
					c0.386-4.515,4.359-7.862,8.874-7.476C1893.937,1535.726,1897.284,1539.699,1896.898,1544.214z"/>
				<path style="fill:#D3BBA3;" d="M1789.348,1874.969c-0.14,0-0.282-0.014-0.424-0.042c-1.195-0.233-1.974-1.391-1.742-2.586
					c11.097-56.833,17.436-114.928,18.838-172.671c0.969-39.731-0.394-79.967-4.046-119.591c-0.112-1.213,0.782-2.286,1.994-2.398
					c1.229-0.104,2.287,0.782,2.399,1.993c3.667,39.794,5.034,80.202,4.063,120.103c-1.41,57.99-7.775,116.333-18.92,173.409
					C1791.305,1874.239,1790.381,1874.969,1789.348,1874.969z"/>
			</g>
			<g>
				<path style="fill:#D3BBA3;" d="M1940.136,1711.929c-14.865,0.001-31.548-3.129-48.08-9.1
					c-43.84-15.836-71.87-45.714-63.813-68.018c0.416-1.147,1.679-1.736,2.823-1.325c1.145,0.413,1.738,1.677,1.324,2.822
					c-7.097,19.646,20.343,47.627,61.164,62.374c20.018,7.23,40.193,10.17,56.809,8.281c16.071-1.828,26.759-7.924,30.097-17.165
					c0.416-1.146,1.682-1.737,2.823-1.325c1.145,0.413,1.738,1.677,1.324,2.822c-3.936,10.901-15.922,18.021-33.746,20.049
					C1947.421,1711.736,1943.833,1711.929,1940.136,1711.929z"/>
				<path style="fill:#D3BBA3;" d="M1961.261,1737.283c-5.493,0-11.629-1.021-18.265-3.08c-16.769-5.203-34.907-16.46-51.07-31.698
					c-16.166-15.238-28.473-32.679-34.657-49.112c-6.38-16.955-5.514-30.939,2.439-39.377c0.833-0.886,2.235-0.926,3.116-0.092
					c0.887,0.835,0.928,2.231,0.093,3.117c-6.735,7.146-7.276,19.504-1.52,34.799c5.951,15.816,17.867,32.67,33.552,47.455
					c15.688,14.786,33.214,25.688,49.354,30.695c15.61,4.842,27.911,3.573,34.648-3.573c0.833-0.885,2.233-0.926,3.116-0.092
					c0.887,0.835,0.928,2.231,0.093,3.117C1977.257,1734.646,1970.089,1737.283,1961.261,1737.283z"/>
				<path style="fill:#D3BBA3;" d="M1900.59,1705.399c-2.943,0-5.693-0.708-8.12-2.195c-11.338-6.947-10.727-27.883,1.391-47.663
					c4.287-6.997,9.571-13.042,15.279-17.483c0.967-0.748,2.349-0.573,3.094,0.386c0.747,0.961,0.575,2.346-0.385,3.094
					c-5.295,4.118-10.214,9.757-14.228,16.306c-10.464,17.083-11.769,36.132-2.846,41.599c8.907,5.461,25.297-4.346,35.766-21.431
					c3.837-6.265,6.571-12.932,7.906-19.282c0.25-1.192,1.427-1.954,2.612-1.704c1.191,0.25,1.953,1.42,1.703,2.611
					c-1.436,6.838-4.362,13.989-8.462,20.679C1924.776,1695.861,1911.388,1705.398,1900.59,1705.399z"/>
				<path style="fill:#FFFFFF;" d="M1976.214,1722.02c-1.54,4.262,0.667,8.965,4.929,10.504c4.262,1.54,8.965-0.667,10.505-4.929
					s-0.667-8.965-4.929-10.505C1982.457,1715.552,1977.754,1717.758,1976.214,1722.02z"/>
				<path style="fill:#FFFFFF;" d="M1975.545,1689.396c-1.54,4.262,0.667,8.965,4.929,10.505s8.965-0.667,10.504-4.929
					c1.54-4.262-0.667-8.965-4.929-10.505C1981.787,1682.928,1977.084,1685.135,1975.545,1689.396z"/>
				<path style="fill:#FFFFFF;" d="M1933.673,1654.794c-1.54,4.262,0.667,8.965,4.929,10.505s8.965-0.667,10.505-4.929
					c1.54-4.262-0.667-8.965-4.929-10.504C1939.915,1648.325,1935.212,1650.532,1933.673,1654.794z"/>
				<path style="fill:#FFFFFF;" d="M1902.861,1637.447c-1.539,4.262,0.667,8.965,4.929,10.504c4.262,1.54,8.965-0.667,10.505-4.929
					s-0.667-8.965-4.929-10.505C1909.104,1630.979,1904.401,1633.185,1902.861,1637.447z"/>
				<path style="fill:#FFFFFF;" d="M1855.547,1611.345c-1.539,4.262,0.667,8.965,4.929,10.504c4.262,1.54,8.965-0.667,10.505-4.929
					s-0.667-8.965-4.929-10.505C1861.79,1604.876,1857.087,1607.083,1855.547,1611.345z"/>
				<path style="fill:#FFFFFF;" d="M1823.7,1629.866c-1.54,4.262,0.667,8.965,4.929,10.504c4.262,1.54,8.965-0.667,10.504-4.929
					c1.54-4.262-0.667-8.965-4.929-10.505C1829.942,1623.397,1825.239,1625.604,1823.7,1629.866z"/>
				<path style="fill:#D3BBA3;" d="M1783.835,1975.471c-0.172,0-0.349-0.021-0.525-0.064c-1.182-0.288-1.908-1.481-1.619-2.664
					c13.776-56.505,32.42-112.155,55.413-165.403c15.817-36.632,33.974-72.757,53.966-107.371c0.609-1.055,1.959-1.416,3.012-0.806
					c1.055,0.609,1.417,1.958,0.807,3.012c-19.908,34.467-37.988,70.438-53.738,106.914
					c-22.896,53.021-41.461,108.434-55.177,164.699C1785.73,1974.795,1784.828,1975.471,1783.835,1975.471z"/>
			</g>
			<path style="fill:#EFBC73;" d="M1891.406,2159.092c43.347-45.651,72.662-126.108,72.662-183.525
				c0-61.49-33.631-105.745-82.104-125.288v-59.847h-119.131v59.847c-48.472,19.543-82.103,63.799-82.103,125.288
				c0,57.417,29.314,137.874,72.662,183.525H1891.406z"/>
		</g>
		<g>
			<g>
				<path style="fill:#E6D0BE;" d="M585.506,726.749l-10.475-3.66c0.846-5.434,1.244-10.867,1.219-16.256l10.895-2.066
					l-6.997-36.896l-10.919,2.071c-1.971-5.069-4.336-9.976-7.075-14.674l8.421-7.253l-24.508-28.454l-8.402,7.237
					c-4.2-3.376-8.699-6.449-13.477-9.172l3.66-10.475l-35.451-12.388l-3.66,10.475c-5.434-0.846-10.867-1.244-16.256-1.219
					l-2.066-10.895l-36.896,6.997l2.071,10.919c-5.069,1.97-9.976,4.336-14.674,7.074l-7.253-8.421l-28.454,24.508l7.237,8.402
					c-3.376,4.2-6.449,8.698-9.171,13.477l-10.475-3.66l-12.388,35.451l10.475,3.66c-0.846,5.434-1.243,10.867-1.219,16.256
					l-10.895,2.066l6.997,36.896l10.919-2.071c1.97,5.069,4.336,9.976,7.074,14.674l-8.421,7.253l24.507,28.454l8.402-7.237
					c4.201,3.376,8.699,6.449,13.477,9.171l-3.661,10.475l35.451,12.388l3.66-10.475c5.434,0.846,10.867,1.244,16.256,1.219
					l2.066,10.895l36.896-6.997l-2.071-10.919c5.069-1.97,9.976-4.336,14.674-7.074l7.253,8.421l28.454-24.508l-7.236-8.402
					c3.376-4.201,6.449-8.699,9.171-13.477l10.475,3.661L585.506,726.749z M528.992,728.973
					c-11.324,29.363-43.959,45.096-73.984,35.668c-33.155-10.411-50.587-46.571-38.083-78.994
					c11.324-29.362,43.959-45.096,73.984-35.668C524.064,660.39,541.496,696.55,528.992,728.973z"/>
			</g>
			<path style="fill:#F2E6DC;" d="M472.974,791.676c-9.291,0-18.69-1.537-27.842-4.735c-21.27-7.433-38.373-22.704-48.157-43
				c-9.785-20.296-11.08-43.188-3.646-64.458c13.659-39.096,54.596-62.777,95.225-55.084c1.196,0.227,1.983,1.38,1.756,2.577
				c-0.227,1.195-1.381,1.984-2.576,1.756c-38.496-7.29-77.296,15.154-90.243,52.206c-7.044,20.158-5.817,41.853,3.456,61.088
				c9.274,19.235,25.482,33.708,45.641,40.752c34.38,12.016,72.535-0.7,92.778-30.922c0.677-1.013,2.048-1.282,3.06-0.605
				c1.011,0.678,1.282,2.047,0.605,3.058C527.056,778.157,500.513,791.676,472.974,791.676z"/>
		</g>
	</g>
</g>
</svg>
